<svg width="400" height="100" viewBox="0 0 296 62" fill="none" xmlns="http://www.w3.org/2000/svg">
<path id="contact-word" d="M8.19531 9.58594L7.4379 8.933L8.19531 9.58594ZM47.7656 10.6406L46.8649 11.0749L46.8664 11.0781L47.7656 10.6406ZM47.2969 14.5469L47.7675 15.4292L47.7732 15.4262L47.2969 14.5469ZM42.6094 17.0469L42.1388 16.1645L42.1344 16.1669L42.6094 17.0469ZM38.5469 15.5625L37.6763 16.0546L37.6779 16.0573L38.5469 15.5625ZM34.7578 12.3203L34.2905 13.2044L34.2957 13.2071L34.7578 12.3203ZM16.8281 16.0703L17.6718 16.6072L17.6736 16.6043L16.8281 16.0703ZM16.8281 45.9531L15.9826 46.4871L15.9845 46.49L16.8281 45.9531ZM35.7344 49.1172L35.1871 48.2802L35.1822 48.2835L35.7344 49.1172ZM39.9531 45.3281L39.116 44.7812L39.1155 44.7819L39.9531 45.3281ZM44.0156 43.8438L43.4574 44.6735L43.4609 44.6758L44.0156 43.8438ZM48.7031 46.9688L49.2617 46.1393L49.2578 46.1367L48.7031 46.9688ZM49.0938 50.875L48.2295 50.3719L48.2287 50.3733L49.0938 50.875ZM8.27344 52.3984L7.51971 53.0556L7.52155 53.0577L8.27344 52.3984ZM2.35938 30.9922C2.35938 22.177 4.5925 15.2967 8.95272 10.2389L7.4379 8.933C2.68354 14.4481 0.359375 21.8386 0.359375 30.9922H2.35938ZM8.95272 10.2389C13.277 5.22274 19.5459 2.65625 27.9219 2.65625V0.65625C19.1104 0.65625 12.2282 3.37621 7.4379 8.933L8.95272 10.2389ZM27.9219 2.65625C32.7713 2.65625 36.8164 3.40983 40.0919 4.87389L40.9081 3.04798C37.3086 1.43913 32.9683 0.65625 27.9219 0.65625V2.65625ZM40.0919 4.87389C43.3509 6.33053 45.5775 8.40486 46.8649 11.0749L48.6664 10.2063C47.1412 7.04306 44.5241 4.66426 40.9081 3.04798L40.0919 4.87389ZM46.8664 11.0781C47.2992 11.9678 47.4036 12.5688 47.3587 12.9434C47.3229 13.2417 47.1883 13.4684 46.8206 13.6676L47.7732 15.4262C48.6554 14.9483 49.224 14.1853 49.3444 13.1816C49.4557 12.2542 49.1695 11.2405 48.6649 10.2032L46.8664 11.0781ZM46.8263 13.6645L42.1388 16.1645L43.08 17.9292L47.7675 15.4292L46.8263 13.6645ZM42.1344 16.1669C41.4873 16.5161 41.0412 16.5229 40.7065 16.4006C40.3391 16.2664 39.8888 15.8981 39.4159 15.0677L37.6779 16.0573C38.2727 17.1019 39.0333 17.9185 40.0201 18.2791C41.0396 18.6516 42.0908 18.463 43.0843 17.9269L42.1344 16.1669ZM39.4174 15.0704C38.608 13.6384 37.158 12.4435 35.22 11.4335L34.2957 13.2071C36.0555 14.1242 37.1316 15.0907 37.6763 16.0546L39.4174 15.0704ZM35.2251 11.4362C33.2321 10.3828 30.917 9.875 28.3125 9.875V11.875C30.6559 11.875 32.6377 12.3308 34.2905 13.2044L35.2251 11.4362ZM28.3125 9.875C22.6292 9.875 18.4129 11.6885 15.9826 15.5363L17.6736 16.6043C19.6184 13.5251 23.0583 11.875 28.3125 11.875V9.875ZM15.9845 15.5334C13.6507 19.2007 12.5469 24.3951 12.5469 30.9922H14.5469C14.5469 24.5684 15.6305 19.8149 17.6718 16.6072L15.9845 15.5334ZM12.5469 30.9922C12.5469 37.5901 13.651 42.7954 15.9826 46.4871L17.6736 45.4191C15.6302 42.1838 14.5469 37.4152 14.5469 30.9922H12.5469ZM15.9845 46.49C18.416 50.3111 22.6323 52.1094 28.3125 52.1094V50.1094C23.0552 50.1094 19.6152 48.4702 17.6718 45.4162L15.9845 46.49ZM28.3125 52.1094C31.4074 52.1094 34.0843 51.4096 36.2866 49.9509L35.1822 48.2835C33.3741 49.4811 31.1031 50.1094 28.3125 50.1094V52.1094ZM36.2816 49.9542C38.359 48.5959 39.8988 47.2421 40.7907 45.8744L39.1155 44.7819C38.445 45.81 37.1723 46.9823 35.1871 48.2802L36.2816 49.9542ZM40.7903 45.8751C41.3775 44.9763 41.8856 44.5715 42.269 44.4315C42.584 44.3163 42.9476 44.3305 43.4574 44.6735L44.5738 43.014C43.6514 42.3935 42.6217 42.1732 41.5826 42.5529C40.6118 42.9077 39.8048 43.7268 39.116 44.7812L40.7903 45.8751ZM43.4609 44.6758L48.1484 47.8008L49.2578 46.1367L44.5703 43.0117L43.4609 44.6758ZM48.1445 47.7982C48.5839 48.0941 48.7326 48.3878 48.7628 48.6893C48.7983 49.0448 48.6852 49.5891 48.2295 50.3719L49.958 51.3781C50.5179 50.4161 50.8475 49.437 50.7528 48.4903C50.6528 47.4898 50.0984 46.7028 49.2617 46.1393L48.1445 47.7982ZM48.2287 50.3733C46.8454 52.7584 44.4305 54.869 40.8706 56.6615L41.7701 58.4478C45.5539 56.5425 48.3213 54.2 49.9588 51.3767L48.2287 50.3733ZM40.8706 56.6615C37.3717 58.4234 33.0684 59.3281 27.9219 59.3281V61.3281C33.2961 61.3281 37.9252 60.3839 41.7701 58.4478L40.8706 56.6615ZM27.9219 59.3281C19.6822 59.3281 13.4323 56.7651 9.02533 51.7391L7.52155 53.0577C12.3854 58.6047 19.2344 61.3281 27.9219 61.3281V59.3281ZM9.02716 51.7412C4.61707 46.6833 2.35938 39.8046 2.35938 30.9922H0.359375C0.359375 40.1485 2.71105 47.5406 7.51971 53.0556L9.02716 51.7412ZM61.6328 22.8672L60.8933 22.194L60.8908 22.1968L61.6328 22.8672ZM92.2188 22.8672L91.4767 23.5376L91.4793 23.5404L92.2188 22.8672ZM92.2188 54.1172L91.4793 53.444L91.4767 53.4468L92.2188 54.1172ZM61.6328 54.1172L60.8908 54.7876L60.8933 54.7904L61.6328 54.1172ZM70.3438 49.0391L69.5341 49.626L69.5383 49.6318L69.5425 49.6374L70.3438 49.0391ZM83.5078 49.0391L82.703 48.4455L82.7017 48.4473L83.5078 49.0391ZM83.5078 27.9844L82.6982 28.5713L82.7024 28.5771L82.7066 28.5828L83.5078 27.9844ZM70.3438 27.9844L69.5389 27.3908L69.5377 27.3926L70.3438 27.9844ZM57.5156 38.4922C57.5156 32.0218 59.1749 27.0795 62.3748 23.5376L60.8908 22.1968C57.2678 26.207 55.5156 31.6813 55.5156 38.4922H57.5156ZM62.3723 23.5404C65.5639 20.0345 70.3596 18.2031 76.9453 18.2031V16.2031C69.9894 16.2031 64.5768 18.1478 60.8933 22.194L62.3723 23.5404ZM76.9453 18.2031C83.5316 18.2031 88.312 20.0346 91.4767 23.5376L92.9608 22.1968C89.3026 18.1477 83.9007 16.2031 76.9453 16.2031V18.2031ZM91.4793 23.5404C94.7037 27.0824 96.375 32.0237 96.375 38.4922H98.375C98.375 31.6794 96.6088 26.2041 92.9582 22.194L91.4793 23.5404ZM96.375 38.4922C96.375 44.9607 94.7037 49.902 91.4793 53.444L92.9582 54.7904C96.6088 50.7803 98.375 45.3049 98.375 38.4922H96.375ZM91.4767 53.4468C88.312 56.9497 83.5316 58.7812 76.9453 58.7812V60.7812C83.9007 60.7812 89.3026 58.8367 92.9608 54.7876L91.4767 53.4468ZM76.9453 58.7812C70.3596 58.7812 65.5639 56.9499 62.3723 53.444L60.8933 54.7904C64.5768 58.8366 69.9894 60.7812 76.9453 60.7812V58.7812ZM62.3748 53.4468C59.1749 49.9049 57.5156 44.9626 57.5156 38.4922H55.5156C55.5156 45.3031 57.2678 50.7774 60.8908 54.7876L62.3748 53.4468ZM67.0781 38.4922C67.0781 43.4856 67.8293 47.2746 69.5341 49.626L71.1534 48.4521C69.8373 46.6369 69.0781 43.3946 69.0781 38.4922H67.0781ZM69.5425 49.6374C71.2915 51.9793 73.8072 53.125 76.9453 53.125V51.125C74.3542 51.125 72.4689 50.2134 71.145 48.4407L69.5425 49.6374ZM76.9453 53.125C80.0834 53.125 82.59 51.9789 84.3139 49.6309L82.7017 48.4473C81.4048 50.2138 79.5364 51.125 76.9453 51.125V53.125ZM84.3126 49.6326C86.0479 47.2797 86.8125 43.4875 86.8125 38.4922H84.8125C84.8125 43.3927 84.0407 46.6317 82.703 48.4455L84.3126 49.6326ZM86.8125 38.4922C86.8125 33.4988 86.0486 29.7153 84.309 27.386L82.7066 28.5828C84.0399 30.3681 84.8125 33.5897 84.8125 38.4922H86.8125ZM84.3174 27.3974C82.5955 25.0224 80.0884 23.8594 76.9453 23.8594V25.8594C79.5314 25.8594 81.3992 26.7797 82.6982 28.5713L84.3174 27.3974ZM76.9453 23.8594C73.8023 23.8594 71.286 25.022 69.5389 27.3908L71.1486 28.5779C72.4744 26.7801 74.3592 25.8594 76.9453 25.8594V23.8594ZM69.5377 27.3926C67.8286 29.7204 67.0781 33.5007 67.0781 38.4922H69.0781C69.0781 33.5878 69.8381 30.3629 71.1498 28.5762L69.5377 27.3926ZM116.672 22.5938H115.672V23.5938H116.672V22.5938ZM116.828 22.5938V23.5938H117.403L117.692 23.0969L116.828 22.5938ZM121.398 18.375L121.777 19.3008L121.788 19.2961L121.398 18.375ZM138.156 21.0312L138.849 20.3101L138.156 21.0312ZM118.82 28.0625L119.657 28.61L119.66 28.6053L118.82 28.0625ZM108.156 58C107.529 58 107.242 57.8439 107.106 57.707C106.969 57.57 106.812 57.2834 106.812 56.6562H104.812C104.812 57.5916 105.047 58.4769 105.691 59.1212C106.336 59.7655 107.221 60 108.156 60V58ZM106.812 56.6562V20.3281H104.812V56.6562H106.812ZM106.812 20.3281C106.812 19.701 106.969 19.4144 107.106 19.2774C107.242 19.1405 107.529 18.9844 108.156 18.9844V16.9844C107.221 16.9844 106.336 17.2189 105.691 17.8632C105.047 18.5075 104.812 19.3927 104.812 20.3281H106.812ZM108.156 18.9844H114.328V16.9844H108.156V18.9844ZM114.328 18.9844C114.955 18.9844 115.242 19.1405 115.379 19.2774C115.516 19.4144 115.672 19.701 115.672 20.3281H117.672C117.672 19.3927 117.437 18.5075 116.793 17.8632C116.149 17.2189 115.264 16.9844 114.328 16.9844V18.9844ZM115.672 20.3281V22.5938H117.672V20.3281H115.672ZM116.672 23.5938H116.828V21.5938H116.672V23.5938ZM117.692 23.0969C118.801 21.1924 120.169 19.9574 121.777 19.3008L121.02 17.4492C118.93 18.303 117.251 19.8805 115.964 22.0906L117.692 23.0969ZM121.788 19.2961C123.483 18.5799 125.57 18.2031 128.078 18.2031V16.2031C125.378 16.2031 123.012 16.6076 121.009 17.4539L121.788 19.2961ZM128.078 18.2031C131.911 18.2031 135.013 19.3983 137.463 21.7524L138.849 20.3101C135.987 17.56 132.37 16.2031 128.078 16.2031V18.2031ZM137.463 21.7524C139.812 24.009 141.141 28.3095 141.141 35.0156H143.141C143.141 28.1801 141.813 23.1577 138.849 20.3101L137.463 21.7524ZM141.141 35.0156V56.6562H143.141V35.0156H141.141ZM141.141 56.6562C141.141 57.2834 140.985 57.57 140.848 57.707C140.711 57.8439 140.424 58 139.797 58V60C140.732 60 141.617 59.7655 142.262 59.1212C142.906 58.4769 143.141 57.5916 143.141 56.6562H141.141ZM139.797 58H133.547V60H139.797V58ZM133.547 58C132.92 58 132.633 57.8439 132.496 57.707C132.359 57.57 132.203 57.2834 132.203 56.6562H130.203C130.203 57.5916 130.438 58.4769 131.082 59.1212C131.726 59.7655 132.611 60 133.547 60V58ZM132.203 56.6562V37.8281H130.203V56.6562H132.203ZM132.203 37.8281C132.203 34.9714 132.105 32.617 131.904 30.7763C131.707 28.9713 131.401 27.5415 130.916 26.6202L129.146 27.5517C129.443 28.1148 129.722 29.2175 129.916 30.9932C130.106 32.7332 130.203 35.0078 130.203 37.8281H132.203ZM130.916 26.6202C129.88 24.651 127.723 23.8594 124.992 23.8594V25.8594C127.417 25.8594 128.62 26.5521 129.146 27.5517L130.916 26.6202ZM124.992 23.8594C121.949 23.8594 119.561 25.0745 117.98 27.5197L119.66 28.6053C120.84 26.7797 122.567 25.8594 124.992 25.8594V23.8594ZM117.984 27.515C117.177 28.7469 116.632 30.5411 116.28 32.7904C115.924 35.0608 115.75 37.8904 115.75 41.2656H117.75C117.75 37.9481 117.921 35.2309 118.256 33.1002C118.593 30.9485 119.083 29.4875 119.657 28.61L117.984 27.515ZM115.75 41.2656V56.6562H117.75V41.2656H115.75ZM115.75 56.6562C115.75 57.2834 115.594 57.57 115.457 57.707C115.32 57.8439 115.033 58 114.406 58V60C115.342 60 116.227 59.7655 116.871 59.1212C117.515 58.4769 117.75 57.5916 117.75 56.6562H115.75ZM114.406 58H108.156V60H114.406V58ZM153.977 17.9844V18.9844H154.977V17.9844H153.977ZM154.797 13.4141L153.928 12.9186L153.927 12.9205L154.797 13.4141ZM157.805 8.14062L156.939 7.63958L156.936 7.64518L157.805 8.14062ZM164.914 17.9844H163.914V18.9844H164.914V17.9844ZM164.914 25.7969V24.7969H163.914V25.7969H164.914ZM165.461 50.9141L164.506 51.2111L164.51 51.224L164.514 51.2367L165.461 50.9141ZM171.164 52.2422L171.412 53.2109L171.424 53.2079L171.436 53.2046L171.164 52.2422ZM173.547 51.4219L173.961 52.3322L173.963 52.3313L173.547 51.4219ZM175.344 52.3203L176.311 52.0658L176.309 52.0573L176.306 52.0489L175.344 52.3203ZM176.516 56.7734L175.549 57.0279L175.549 57.0293L176.516 56.7734ZM175.5 58.7266L175.914 59.6369L175.916 59.636L175.5 58.7266ZM171.945 59.7812L171.743 58.802L171.733 58.804L171.723 58.8063L171.945 59.7812ZM153.977 25.7969H154.977V24.7969H153.977V25.7969ZM151.32 24.7969C150.67 24.7969 150.368 24.6555 150.238 24.5457C150.14 24.4628 150.016 24.2933 150.016 23.8438H148.016C148.016 24.6963 148.275 25.5034 148.945 26.0715C149.584 26.6127 150.435 26.7969 151.32 26.7969V24.7969ZM150.016 23.8438V19.9375H148.016V23.8438H150.016ZM150.016 19.9375C150.016 19.4879 150.14 19.3185 150.238 19.2356C150.368 19.1257 150.67 18.9844 151.32 18.9844V16.9844C150.435 16.9844 149.584 17.1685 148.945 17.7098C148.275 18.2779 148.016 19.085 148.016 19.9375H150.016ZM151.32 18.9844H153.977V16.9844H151.32V18.9844ZM154.977 17.9844V16.6172H152.977V17.9844H154.977ZM154.977 16.6172C154.977 15.608 155.21 14.712 155.667 13.9077L153.927 12.9205C153.29 14.0432 152.977 15.2826 152.977 16.6172H154.977ZM155.666 13.9095L158.673 8.63607L156.936 7.64518L153.928 12.9186L155.666 13.9095ZM158.67 8.64166C159.155 7.80374 159.562 7.65625 159.836 7.65625V5.65625C158.547 5.65625 157.6 6.49834 156.939 7.63959L158.67 8.64166ZM159.836 7.65625H162.57V5.65625H159.836V7.65625ZM162.57 7.65625C163.197 7.65625 163.484 7.81235 163.621 7.94929C163.758 8.08624 163.914 8.37289 163.914 9H165.914C165.914 8.06461 165.68 7.17939 165.035 6.53508C164.391 5.89078 163.506 5.65625 162.57 5.65625V7.65625ZM163.914 9V17.9844H165.914V9H163.914ZM164.914 18.9844H171.242V16.9844H164.914V18.9844ZM171.242 18.9844C171.893 18.9844 172.195 19.1257 172.324 19.2356C172.422 19.3185 172.547 19.4879 172.547 19.9375H174.547C174.547 19.085 174.288 18.2779 173.617 17.7098C172.979 17.1685 172.128 16.9844 171.242 16.9844V18.9844ZM172.547 19.9375V23.8438H174.547V19.9375H172.547ZM172.547 23.8438C172.547 24.2933 172.422 24.4628 172.324 24.5457C172.195 24.6555 171.893 24.7969 171.242 24.7969V26.7969C172.128 26.7969 172.979 26.6127 173.617 26.0715C174.288 25.5034 174.547 24.6963 174.547 23.8438H172.547ZM171.242 24.7969H164.914V26.7969H171.242V24.7969ZM163.914 25.7969V45.1719H165.914V25.7969H163.914ZM163.914 45.1719C163.914 47.8397 164.093 49.8844 164.506 51.2111L166.416 50.617C166.099 49.6 165.914 47.8165 165.914 45.1719H163.914ZM164.514 51.2367C164.783 52.0239 165.278 52.6535 165.995 53.0686C166.69 53.4709 167.525 53.6328 168.43 53.6328V51.6328C167.746 51.6328 167.292 51.5082 166.997 51.3377C166.725 51.1799 166.53 50.9501 166.407 50.5914L164.514 51.2367ZM168.43 53.6328C169.341 53.6328 170.338 53.4862 171.412 53.2109L170.916 51.2735C169.958 51.519 169.133 51.6328 168.43 51.6328V53.6328ZM171.436 53.2046C172.472 52.9123 173.321 52.6229 173.961 52.3322L173.133 50.5115C172.627 50.7417 171.887 50.9992 170.893 51.2797L171.436 53.2046ZM173.963 52.3313C174.283 52.1848 174.316 52.2704 174.232 52.2284C174.166 52.1953 174.271 52.2016 174.381 52.5918L176.306 52.0489C176.13 51.4234 175.792 50.7721 175.127 50.4396C174.444 50.0981 173.722 50.2423 173.131 50.5124L173.963 52.3313ZM174.377 52.5748L175.549 57.0279L177.483 56.5189L176.311 52.0658L174.377 52.5748ZM175.549 57.0293C175.619 57.2936 175.578 57.4109 175.55 57.4644C175.516 57.5309 175.411 57.6679 175.084 57.8171L175.916 59.636C176.501 59.3686 177.021 58.9717 177.325 58.3871C177.635 57.7896 177.647 57.1387 177.482 56.5175L175.549 57.0293ZM175.086 57.8162C174.323 58.163 173.22 58.4964 171.743 58.802L172.148 60.7605C173.691 60.4411 174.958 60.0714 175.914 59.6369L175.086 57.8162ZM171.723 58.8063C170.311 59.1283 168.888 59.2891 167.453 59.2891V61.2891C169.039 61.2891 170.611 61.1113 172.168 60.7562L171.723 58.8063ZM167.453 59.2891C163.867 59.2891 160.873 58.55 158.426 57.1209L157.417 58.8478C160.231 60.4916 163.591 61.2891 167.453 61.2891V59.2891ZM158.426 57.1209C156.253 55.8512 154.977 53.145 154.977 48.4922H152.977C152.977 53.4228 154.331 57.0447 157.417 58.8478L158.426 57.1209ZM154.977 48.4922V25.7969H152.977V48.4922H154.977ZM153.977 24.7969H151.32V26.7969H153.977V24.7969ZM206.164 32.9844L206.189 33.9841L207.164 33.9602V32.9844H206.164ZM195.344 25.5234L195.686 26.4633L195.697 26.4589L195.344 25.5234ZM192.336 27.0078L192.885 27.8439L192.891 27.8399L192.336 27.0078ZM190.07 28.6875L189.424 27.924L189.414 27.9329L190.07 28.6875ZM187.102 28.8438L186.326 29.475L186.333 29.4839L187.102 28.8438ZM183.859 24.8594L184.635 24.2282L184.634 24.2272L183.859 24.8594ZM184.445 21.8125L185.102 22.5671L185.108 22.5611L184.445 21.8125ZM187.609 19.7031L187.17 18.8049L187.162 18.8087L187.609 19.7031ZM192.453 18.0234L192.705 18.9914L192.716 18.9882L192.453 18.0234ZM212.727 20.9531L212.072 21.7095L212.076 21.7124L212.727 20.9531ZM206.242 55.4844H207.242V54.4844H206.242V55.4844ZM206.164 55.4844V54.4844H205.76L205.469 54.7652L206.164 55.4844ZM200.617 58.7656L200.919 59.7189L200.927 59.7166L200.617 58.7656ZM184.992 56.6562L184.302 57.3802L184.307 57.3844L184.992 56.6562ZM193.781 50.2109L192.901 50.685L192.905 50.6923L192.909 50.6995L193.781 50.2109ZM206.164 49L206.825 49.7502L207.164 49.4516V49H206.164ZM206.164 40.5234H207.164V39.404L206.052 39.5298L206.164 40.5234ZM194.172 44.8594L193.384 44.2437L193.378 44.2515L193.372 44.2594L194.172 44.8594ZM182.672 48.0625C182.672 45.6234 183.252 43.5753 184.372 41.8743C185.495 40.1699 187.202 38.7495 189.559 37.639L188.707 35.8298C186.089 37.063 184.066 38.7025 182.702 40.7742C181.335 42.8492 180.672 45.2933 180.672 48.0625H182.672ZM189.559 37.639C194.389 35.3633 199.925 34.1375 206.189 33.9841L206.14 31.9847C199.642 32.1438 193.825 33.4179 188.707 35.8298L189.559 37.639ZM207.164 32.9844V31.4219H205.164V32.9844H207.164ZM207.164 31.4219C207.164 28.8907 206.533 26.8362 205.004 25.5728L203.73 27.1147C204.597 27.8305 205.164 29.1614 205.164 31.4219H207.164ZM205.004 25.5728C203.57 24.3881 201.649 23.8594 199.367 23.8594V25.8594C201.357 25.8594 202.769 26.3202 203.73 27.1147L205.004 25.5728ZM199.367 23.8594C197.76 23.8594 196.296 24.0948 194.99 24.588L195.697 26.4589C196.736 26.0666 197.953 25.8594 199.367 25.8594V23.8594ZM195.002 24.5836C193.794 25.0228 192.718 25.5515 191.781 26.1758L192.891 27.8399C193.673 27.3183 194.602 26.8574 195.685 26.4632L195.002 24.5836ZM191.787 26.1718C190.924 26.7382 190.136 27.3221 189.424 27.9241L190.716 29.4509C191.359 28.9071 192.081 28.3712 192.885 27.8439L191.787 26.1718ZM189.414 27.9329C188.889 28.3893 188.55 28.5001 188.377 28.5092C188.27 28.5148 188.111 28.4927 187.87 28.2036L186.333 29.4839C186.874 30.1323 187.599 30.5529 188.482 30.5064C189.299 30.4635 190.053 30.0274 190.726 29.4421L189.414 27.9329ZM187.877 28.2126L184.635 24.2282L183.084 25.4905L186.326 29.4749L187.877 28.2126ZM184.634 24.2272C184.37 23.9031 184.354 23.6941 184.382 23.5443C184.42 23.3463 184.586 23.0155 185.101 22.5671L183.789 21.0579C183.107 21.6512 182.576 22.349 182.418 23.1666C182.252 24.0324 182.542 24.8261 183.085 25.4915L184.634 24.2272ZM185.108 22.5611C185.948 21.8171 186.929 21.1614 188.057 20.5976L187.162 18.8087C185.894 19.4428 184.765 20.1934 183.782 21.0639L185.108 22.5611ZM188.049 20.6013C189.19 20.0428 190.734 19.503 192.705 18.9913L192.202 17.0556C190.161 17.5855 188.476 18.1655 187.17 18.8049L188.049 20.6013ZM192.716 18.9882C194.603 18.4737 197.109 18.2031 200.266 18.2031V16.2031C197.016 16.2031 194.314 16.4794 192.19 17.0587L192.716 18.9882ZM200.266 18.2031C205.541 18.2031 209.427 19.4212 212.072 21.7095L213.381 20.1968C210.245 17.485 205.823 16.2031 200.266 16.2031V18.2031ZM212.076 21.7124C214.714 23.9737 216.102 27.3457 216.102 32.0078H218.102C218.102 26.9304 216.573 22.9326 213.377 20.1939L212.076 21.7124ZM216.102 32.0078V56.6562H218.102V32.0078H216.102ZM216.102 56.6562C216.102 57.2834 215.945 57.57 215.809 57.707C215.672 57.8439 215.385 58 214.758 58V60C215.693 60 216.578 59.7655 217.223 59.1212C217.867 58.4769 218.102 57.5916 218.102 56.6562H216.102ZM214.758 58H208.352V60H214.758V58ZM208.352 58C207.831 58 207.617 57.8603 207.513 57.7451C207.391 57.6098 207.242 57.3078 207.242 56.6562H205.242C205.242 57.5672 205.445 58.4371 206.026 59.083C206.626 59.749 207.465 60 208.352 60V58ZM207.242 56.6562V55.4844H205.242V56.6562H207.242ZM206.242 54.4844H206.164V56.4844H206.242V54.4844ZM205.469 54.7652C204.049 56.1373 202.334 57.1555 200.308 57.8147L200.927 59.7166C203.223 58.9695 205.206 57.8002 206.859 56.2036L205.469 54.7652ZM200.315 57.8124C198.254 58.4658 196.391 58.7812 194.719 58.7812V60.7812C196.64 60.7812 198.709 60.4196 200.919 59.7189L200.315 57.8124ZM194.719 58.7812C190.599 58.7812 187.642 57.7768 185.678 55.9281L184.307 57.3844C186.77 59.7024 190.297 60.7812 194.719 60.7812V58.7812ZM185.682 55.9323C183.703 54.0462 182.672 51.4632 182.672 48.0625H180.672C180.672 51.9014 181.854 55.0475 184.302 57.3802L185.682 55.9323ZM192.234 47.8281C192.234 48.8744 192.444 49.8375 192.901 50.685L194.662 49.7368C194.389 49.2302 194.234 48.6047 194.234 47.8281H192.234ZM192.909 50.6995C193.399 51.5756 194.164 52.1987 195.129 52.5847L195.871 50.7278C195.274 50.4888 194.892 50.1483 194.654 49.7223L192.909 50.6995ZM195.129 52.5847C196.044 52.9508 197.045 53.125 198.117 53.125V51.125C197.263 51.125 196.519 50.9867 195.871 50.7278L195.129 52.5847ZM198.117 53.125C199.538 53.125 200.922 52.9298 202.264 52.5381L201.704 50.6181C200.547 50.9556 199.352 51.125 198.117 51.125V53.125ZM202.264 52.5381C203.713 52.1156 205.235 51.1517 206.825 49.7502L205.503 48.2498C204.02 49.5567 202.756 50.3115 201.704 50.6181L202.264 52.5381ZM207.164 49V40.5234H205.164V49H207.164ZM206.052 39.5298C201.692 40.0229 198.582 40.6722 196.909 41.5526L197.841 43.3224C199.137 42.6403 201.886 42.0136 206.276 41.5171L206.052 39.5298ZM196.909 41.5526C195.365 42.3654 194.158 43.2525 193.384 44.2437L194.96 45.475C195.488 44.7996 196.416 44.0721 197.841 43.3224L196.909 41.5526ZM193.372 44.2594C192.604 45.2832 192.234 46.4888 192.234 47.8281H194.234C194.234 46.8758 194.49 46.1022 194.972 45.4594L193.372 44.2594ZM255.344 18.8047L255.774 17.902L255.344 18.8047ZM260.734 23.4922L259.899 24.042L259.9 24.0428L260.734 23.4922ZM260.344 26.3828L259.794 25.5476L259.793 25.5483L260.344 26.3828ZM256.203 29.1172L255.652 28.2827L255.648 28.2851L256.203 29.1172ZM253.117 28.2188L253.959 27.6788L253.954 27.6715L253.117 28.2188ZM239.328 27.9844L240.144 28.5627L240.147 28.5578L239.328 27.9844ZM239.328 49.0391L238.509 49.6125L238.512 49.6174L239.328 49.0391ZM254.719 47.3594L253.948 46.7225L253.944 46.7277L254.719 47.3594ZM257.844 46.8516L257.226 47.6379L257.226 47.6382L257.844 46.8516ZM261.477 49.7031L262.094 48.9168L262.094 48.9165L261.477 49.7031ZM261.672 53.1406L260.842 52.5824L260.842 52.5826L261.672 53.1406ZM256.477 57.5938L255.965 56.7346L255.961 56.7371L256.477 57.5938ZM226.578 38.4922C226.578 32.0163 228.201 27.0707 231.328 23.529L229.828 22.2054C226.288 26.2158 224.578 31.6869 224.578 38.4922H226.578ZM231.328 23.529C234.409 20.039 239.205 18.2031 245.93 18.2031V16.2031C238.853 16.2031 233.414 18.1433 229.828 22.2054L231.328 23.529ZM245.93 18.2031C249.9 18.2031 252.867 18.7317 254.913 19.7074L255.774 17.902C253.342 16.7423 250.033 16.2031 245.93 16.2031V18.2031ZM254.913 19.7074C256.99 20.6972 258.646 22.1382 259.899 24.042L261.57 22.9424C260.114 20.7316 258.177 19.0476 255.774 17.902L254.913 19.7074ZM259.9 24.0428C260.236 24.5521 260.271 24.8527 260.251 24.9989C260.236 25.1106 260.167 25.3019 259.794 25.5476L260.894 27.218C261.588 26.7606 262.118 26.1186 262.233 25.2667C262.344 24.4494 262.041 23.6563 261.569 22.9416L259.9 24.0428ZM259.793 25.5483L255.652 28.2827L256.754 29.9517L260.895 27.2173L259.793 25.5483ZM255.648 28.2851C255.226 28.5671 254.98 28.5614 254.832 28.5184C254.646 28.4641 254.338 28.2692 253.959 27.6788L252.275 28.7587C252.782 29.5485 253.431 30.1935 254.273 30.4387C255.154 30.6951 256.009 30.4486 256.758 29.9492L255.648 28.2851ZM253.954 27.6715C253.391 26.8107 252.396 25.9883 251.108 25.1833L250.048 26.8792C251.26 27.6367 251.958 28.2727 252.28 28.766L253.954 27.6715ZM251.108 25.1833C249.663 24.2802 247.919 23.8594 245.93 23.8594V25.8594C247.639 25.8594 248.993 26.2198 250.048 26.8792L251.108 25.1833ZM245.93 23.8594C242.72 23.8594 240.186 25.0153 238.509 27.4109L240.147 28.5578C241.387 26.7868 243.254 25.8594 245.93 25.8594V23.8594ZM238.512 27.4061C236.864 29.7308 236.141 33.5044 236.141 38.4922H238.141C238.141 33.5842 238.875 30.3525 240.144 28.5627L238.512 27.4061ZM236.141 38.4922C236.141 43.482 236.865 47.2643 238.509 49.6125L240.147 48.4656C238.874 46.6472 238.141 43.3982 238.141 38.4922H236.141ZM238.512 49.6174C240.191 51.986 242.725 53.125 245.93 53.125V51.125C243.249 51.125 241.382 50.2067 240.144 48.4608L238.512 49.6174ZM245.93 53.125C248.173 53.125 250.094 52.6545 251.609 51.6238L250.485 49.9699C249.396 50.7101 247.905 51.125 245.93 51.125V53.125ZM251.609 51.6238C253.002 50.6764 254.296 49.4612 255.494 47.991L253.944 46.7277C252.85 48.0701 251.696 49.1465 250.485 49.9699L251.609 51.6238ZM255.49 47.9963C255.901 47.498 256.212 47.352 256.403 47.321C256.567 47.2943 256.825 47.3232 257.226 47.6379L258.462 46.0652C257.768 45.5205 256.959 45.2044 256.082 45.3469C255.231 45.4852 254.526 46.0229 253.948 46.7225L255.49 47.9963ZM257.226 47.6382L260.859 50.4897L262.094 48.9165L258.461 46.065L257.226 47.6382ZM260.859 50.4894C261.232 50.7827 261.334 51.0375 261.347 51.2638C261.363 51.5334 261.26 51.9606 260.842 52.5824L262.502 53.6988C263.047 52.8884 263.394 52.0264 263.344 51.1503C263.292 50.2307 262.815 49.4829 262.094 48.9168L260.859 50.4894ZM260.842 52.5826C259.942 53.9206 258.35 55.3136 255.965 56.7346L256.988 58.4529C259.499 56.9572 261.37 55.3815 262.502 53.6986L260.842 52.5826ZM255.961 56.7371C253.764 58.0599 250.46 58.7812 245.93 58.7812V60.7812C250.618 60.7812 254.345 60.0443 256.992 58.4504L255.961 56.7371ZM245.93 58.7812C239.205 58.7812 234.409 56.9453 231.328 53.4554L229.828 54.779C233.414 58.8411 238.853 60.7812 245.93 60.7812V58.7812ZM231.328 53.4554C228.201 49.9137 226.578 44.9681 226.578 38.4922H224.578C224.578 45.2975 226.288 50.7686 229.828 54.779L231.328 53.4554ZM271.477 17.9844V18.9844H272.477V17.9844H271.477ZM272.297 13.4141L271.428 12.9186L271.427 12.9205L272.297 13.4141ZM275.305 8.14062L274.439 7.63958L274.436 7.64518L275.305 8.14062ZM282.414 17.9844H281.414V18.9844H282.414V17.9844ZM282.414 25.7969V24.7969H281.414V25.7969H282.414ZM282.961 50.9141L282.006 51.2111L282.01 51.224L282.014 51.2367L282.961 50.9141ZM288.664 52.2422L288.912 53.2109L288.924 53.2079L288.936 53.2046L288.664 52.2422ZM291.047 51.4219L291.461 52.3322L291.463 52.3313L291.047 51.4219ZM292.844 52.3203L293.811 52.0658L293.809 52.0573L293.806 52.0489L292.844 52.3203ZM294.016 56.7734L293.049 57.0279L293.049 57.0293L294.016 56.7734ZM293 58.7266L293.414 59.6369L293.416 59.636L293 58.7266ZM289.445 59.7812L289.243 58.802L289.233 58.804L289.223 58.8063L289.445 59.7812ZM271.477 25.7969H272.477V24.7969H271.477V25.7969ZM268.82 24.7969C268.17 24.7969 267.868 24.6555 267.738 24.5457C267.64 24.4628 267.516 24.2933 267.516 23.8438H265.516C265.516 24.6963 265.775 25.5034 266.445 26.0715C267.084 26.6127 267.935 26.7969 268.82 26.7969V24.7969ZM267.516 23.8438V19.9375H265.516V23.8438H267.516ZM267.516 19.9375C267.516 19.4879 267.64 19.3185 267.738 19.2356C267.868 19.1257 268.17 18.9844 268.82 18.9844V16.9844C267.935 16.9844 267.084 17.1685 266.445 17.7098C265.775 18.2779 265.516 19.085 265.516 19.9375H267.516ZM268.82 18.9844H271.477V16.9844H268.82V18.9844ZM272.477 17.9844V16.6172H270.477V17.9844H272.477ZM272.477 16.6172C272.477 15.608 272.71 14.712 273.167 13.9077L271.427 12.9205C270.79 14.0432 270.477 15.2826 270.477 16.6172H272.477ZM273.166 13.9095L276.173 8.63607L274.436 7.64518L271.428 12.9186L273.166 13.9095ZM276.17 8.64166C276.655 7.80374 277.062 7.65625 277.336 7.65625V5.65625C276.047 5.65625 275.1 6.49834 274.439 7.63959L276.17 8.64166ZM277.336 7.65625H280.07V5.65625H277.336V7.65625ZM280.07 7.65625C280.697 7.65625 280.984 7.81235 281.121 7.94929C281.258 8.08624 281.414 8.37289 281.414 9H283.414C283.414 8.06461 283.18 7.17939 282.535 6.53508C281.891 5.89078 281.006 5.65625 280.07 5.65625V7.65625ZM281.414 9V17.9844H283.414V9H281.414ZM282.414 18.9844H288.742V16.9844H282.414V18.9844ZM288.742 18.9844C289.393 18.9844 289.695 19.1257 289.824 19.2356C289.922 19.3185 290.047 19.4879 290.047 19.9375H292.047C292.047 19.085 291.788 18.2779 291.117 17.7098C290.479 17.1685 289.628 16.9844 288.742 16.9844V18.9844ZM290.047 19.9375V23.8438H292.047V19.9375H290.047ZM290.047 23.8438C290.047 24.2933 289.922 24.4628 289.824 24.5457C289.695 24.6555 289.393 24.7969 288.742 24.7969V26.7969C289.628 26.7969 290.479 26.6127 291.117 26.0715C291.788 25.5034 292.047 24.6963 292.047 23.8438H290.047ZM288.742 24.7969H282.414V26.7969H288.742V24.7969ZM281.414 25.7969V45.1719H283.414V25.7969H281.414ZM281.414 45.1719C281.414 47.8397 281.593 49.8844 282.006 51.2111L283.916 50.617C283.599 49.6 283.414 47.8165 283.414 45.1719H281.414ZM282.014 51.2367C282.283 52.0239 282.778 52.6535 283.495 53.0686C284.19 53.4709 285.025 53.6328 285.93 53.6328V51.6328C285.246 51.6328 284.792 51.5082 284.497 51.3377C284.225 51.1799 284.03 50.9501 283.907 50.5914L282.014 51.2367ZM285.93 53.6328C286.841 53.6328 287.838 53.4862 288.912 53.2109L288.416 51.2735C287.458 51.519 286.633 51.6328 285.93 51.6328V53.6328ZM288.936 53.2046C289.972 52.9123 290.821 52.6229 291.461 52.3322L290.633 50.5115C290.127 50.7417 289.387 50.9992 288.393 51.2797L288.936 53.2046ZM291.463 52.3313C291.783 52.1848 291.816 52.2704 291.732 52.2284C291.666 52.1953 291.771 52.2016 291.881 52.5918L293.806 52.0489C293.63 51.4234 293.292 50.7721 292.627 50.4396C291.944 50.0981 291.222 50.2423 290.631 50.5124L291.463 52.3313ZM291.877 52.5748L293.049 57.0279L294.983 56.5189L293.811 52.0658L291.877 52.5748ZM293.049 57.0293C293.119 57.2936 293.078 57.4109 293.05 57.4644C293.016 57.5309 292.911 57.6679 292.584 57.8171L293.416 59.636C294.001 59.3686 294.521 58.9717 294.825 58.3871C295.135 57.7896 295.147 57.1387 294.982 56.5175L293.049 57.0293ZM292.586 57.8162C291.823 58.163 290.72 58.4964 289.243 58.802L289.648 60.7605C291.191 60.4411 292.458 60.0714 293.414 59.6369L292.586 57.8162ZM289.223 58.8063C287.811 59.1283 286.388 59.2891 284.953 59.2891V61.2891C286.539 61.2891 288.111 61.1113 289.668 60.7562L289.223 58.8063ZM284.953 59.2891C281.367 59.2891 278.373 58.55 275.926 57.1209L274.917 58.8478C277.731 60.4916 281.091 61.2891 284.953 61.2891V59.2891ZM275.926 57.1209C273.753 55.8512 272.477 53.145 272.477 48.4922H270.477C270.477 53.4228 271.831 57.0447 274.917 58.8478L275.926 57.1209ZM272.477 48.4922V25.7969H270.477V48.4922H272.477ZM271.477 24.7969H268.82V26.7969H271.477V24.7969Z" fill="#5A6D86"/>
</svg>
