<svg id = "av-logo" width="87" height="59" viewBox="0 0 87 59" fill="none" xmlns="http://www.w3.org/2000/svg">
<path id="AV" d="M17.1231 1.84C19.3631 1.09333 21.3898 0.719998 23.2031 0.719998C25.9765 0.719998 28.1365 1.70667 29.6831 3.68C31.2298 5.6 32.4298 8.34667 33.2831 11.92C33.5498 12.9867 34.0831 15.3333 34.8831 18.96C35.7365 22.5867 36.4298 25.52 36.9631 27.76C38.6165 34.7467 40.1098 40.16 41.4431 44C42.8298 47.84 45.0165 50.9067 48.0031 53.2C47.3631 54.8 46.2965 56.08 44.8031 57.04C43.3631 58 41.7898 58.48 40.0831 58.48C36.1898 58.48 33.3365 55.5467 31.5231 49.68C30.6698 46.96 29.8965 44.2933 29.2031 41.68C27.3365 42.32 25.0165 42.64 22.2431 42.64C19.5231 42.64 16.1631 42.3467 12.1631 41.76C10.5098 48.2133 9.68313 53.0667 9.68313 56.32C9.68313 57.0133 9.70979 57.52 9.76312 57.84C9.06979 57.9467 7.89646 58 6.24313 58C4.58979 58 3.12313 57.4933 1.84312 56.48C0.616458 55.4133 0.00312506 53.92 0.00312506 52C0.00312506 49.3333 2.56313 41.52 7.68313 28.56C12.8031 15.6 15.9498 6.69333 17.1231 1.84ZM14.0031 35.04C16.1365 35.3067 18.2965 35.44 20.4831 35.44C22.7231 35.44 25.0965 35.2 27.6031 34.72C27.1231 32.5333 25.4965 24.16 22.7231 9.6C19.4165 18.1867 16.5098 26.6667 14.0031 35.04ZM68.8675 57.36C66.6275 58.1067 64.6008 58.48 62.7875 58.48C60.0675 58.48 57.9342 57.4933 56.3875 55.52C54.8942 53.4933 53.6675 50.64 52.7075 46.96C52.4942 46.16 51.7475 43.2267 50.4675 38.16C47.9608 28.24 45.9342 21.0667 44.3875 16.64C42.8408 12.16 40.5742 8.77333 37.5875 6.48C38.2275 4.88 39.2675 3.6 40.7075 2.64C42.2008 1.68 43.9342 1.2 45.9075 1.2C47.8808 1.2 49.5075 1.97333 50.7875 3.52C52.0675 5.01333 53.0808 6.85333 53.8275 9.04C54.6275 11.2267 55.3208 13.3333 55.9075 15.36C56.4942 17.3867 57.1075 19.8933 57.7475 22.88C58.4408 25.8667 58.9742 28.2933 59.3475 30.16C59.7742 31.9733 60.4142 35.12 61.2675 39.6C62.1742 44.0267 62.8408 47.2533 63.2675 49.28C72.2275 25.92 76.7075 10.32 76.7075 2.48C76.7075 1.78667 76.6808 1.28 76.6275 0.959995C77.4275 0.799997 78.2542 0.719998 79.1075 0.719998C81.2408 0.719998 82.9742 1.25333 84.3075 2.32C85.6942 3.33333 86.3875 4.8 86.3875 6.72C86.3875 9.38666 83.7475 17.28 78.4675 30.4C73.2408 43.4667 70.0408 52.4533 68.8675 57.36Z" fill="#E24561"/>
</svg>
